# xmcd
#
# Track frame offsets: 
#        150
#        20092
#        40700
#        58650
#        72347
#        87148
#        104991
#        120296
#
# Disc length: 1814 seconds
#
# Revision: 0
# Processed by: cddbd v1.5.2PL0 Copyright (c) Steve Scherf et al.
# Submitted via: ExactAudioCopy v0.99pb5
#
DISCID=69071408
DTITLE=Corinne Bailey Rae - Corinne Bailey Rae [CD2]
DYEAR=2007
DGENRE=Blues
TTITLE0=Since I've Been Loving You
TTITLE1=Emeraldine
TTITLE2=Munich
TTITLE3=Venus As a Boy
TTITLE4=Another Rainy Day
TTITLE5=Daydreaming
TTITLE6=Enchantment (Remix)
TTITLE7=I'd Like To (Remix)
EXTD=
EXTT0=
EXTT1=
EXTT2=
EXTT3=
EXTT4=
EXTT5=
EXTT6=
EXTT7=
PLAYORDER=
